<?xml version="1.0" standalone="no"?>
<!DOCTYPE svg PUBLIC "-//W3C//DTD SVG 20010904//EN"
 "http://www.w3.org/TR/2001/REC-SVG-20010904/DTD/svg10.dtd">
<svg version="1.0" xmlns="http://www.w3.org/2000/svg"
 width="2400.000000pt" height="2400.000000pt" viewBox="0 0 2400.000000 2400.000000"
 preserveAspectRatio="xMidYMid meet">
<metadata>
Created by potrace 1.14, written by Peter Selinger 2001-2017
</metadata>
<g transform="translate(0.000000,2400.000000) scale(0.100000,-0.100000)"
fill="#000000" stroke="none">
<path d="M7325 19943 c-16 -2 -77 -13 -135 -24 -58 -12 -115 -23 -126 -25 -97
-18 -357 -98 -439 -134 -274 -121 -506 -260 -665 -399 -14 -12 -54 -48 -90
-79 -194 -169 -609 -608 -735 -777 -17 -22 -32 -42 -35 -45 -4 -3 -19 -23 -35
-45 -17 -22 -32 -42 -35 -45 -11 -11 -140 -190 -205 -285 -38 -55 -71 -102
-74 -105 -3 -3 -30 -41 -60 -85 -30 -44 -79 -116 -110 -160 -109 -158 -356
-525 -526 -780 -255 -382 -323 -476 -514 -705 -108 -130 -392 -419 -523 -534
-81 -70 -108 -87 -108 -68 0 13 -74 88 -124 126 -97 74 -270 148 -436 188 -88
21 -323 33 -362 19 -22 -8 -50 -73 -138 -317 -77 -216 -169 -517 -206 -676 -2
-10 -6 -26 -8 -35 -2 -10 -13 -54 -24 -98 -30 -116 -120 -534 -147 -680 -2
-11 -10 -54 -19 -95 -8 -41 -18 -91 -21 -110 -3 -19 -10 -54 -16 -78 -5 -23
-12 -59 -14 -80 -3 -20 -8 -48 -11 -62 -2 -14 -7 -38 -9 -55 -3 -16 -10 -52
-15 -80 -5 -27 -12 -67 -16 -89 -3 -21 -8 -48 -10 -60 -2 -11 -7 -34 -9 -51
-3 -16 -15 -82 -26 -145 -12 -63 -23 -126 -25 -140 -3 -14 -20 -106 -39 -205
-19 -99 -37 -193 -39 -210 -3 -16 -8 -41 -11 -55 -3 -14 -12 -56 -20 -95 -8
-38 -17 -81 -20 -95 -2 -14 -10 -50 -16 -80 -68 -350 -156 -696 -251 -995 -23
-71 -43 -132 -43 -135 -1 -3 -4 -12 -8 -20 -3 -8 -15 -44 -28 -80 -12 -36 -39
-112 -60 -169 -41 -109 -41 -112 -23 -256 3 -22 7 -121 9 -220 3 -165 -2 -229
-30 -385 -11 -63 -56 -204 -76 -237 -28 -46 -82 -59 -118 -30 -12 10 -13 9 -8
-7 53 -141 86 -340 82 -491 -2 -99 -19 -237 -30 -256 -3 -3 -7 -24 -11 -44 -3
-21 -7 -45 -9 -54 -4 -19 -35 -159 -40 -181 -11 -50 -97 -390 -105 -415 -5
-16 -12 -41 -14 -55 -3 -14 -24 -104 -46 -200 -39 -170 -65 -298 -76 -370 -3
-19 -7 -41 -10 -49 -18 -52 -25 -366 -11 -461 4 -25 9 -63 13 -86 6 -49 45
-219 59 -265 5 -16 1 -18 -27 -18 -18 1 -66 1 -105 0 l-72 -1 31 -53 c17 -28
65 -124 108 -212 82 -170 125 -225 177 -225 22 0 24 -3 18 -23 -17 -54 -31
-146 -29 -187 2 -57 16 -117 59 -255 75 -242 91 -385 59 -525 -9 -35 -16 -68
-17 -74 -1 -5 24 -11 56 -12 85 -4 150 -29 189 -72 37 -41 46 -63 116 -281
l49 -155 104 -2 c67 -1 120 -7 148 -18 40 -15 187 -111 221 -145 18 -18 111
-78 169 -109 54 -29 162 -39 241 -23 67 14 139 65 260 185 94 92 113 105 183
121 41 9 206 5 257 -7 12 -3 189 235 190 255 0 4 16 30 35 57 19 27 35 52 35
54 0 2 21 39 46 82 58 98 182 339 218 424 15 36 36 83 46 105 49 111 167 493
186 604 3 14 7 34 10 43 3 10 7 28 10 40 2 13 6 34 9 48 38 187 95 547 95 599
0 21 9 39 29 57 16 14 35 46 43 71 7 25 24 54 37 65 l25 19 35 -35 c20 -19 70
-67 112 -108 184 -177 407 -388 549 -518 51 -47 102 -94 114 -105 76 -73 425
-346 542 -426 193 -129 362 -239 370 -239 3 0 29 -15 57 -34 165 -108 695
-385 1017 -530 313 -142 320 -145 331 -142 3 0 12 -4 20 -11 25 -20 892 -371
1299 -525 192 -72 588 -218 605 -222 6 -2 17 -6 25 -9 8 -3 44 -15 80 -27 36
-11 74 -25 85 -30 18 -8 455 -151 480 -156 6 -1 64 -19 130 -39 66 -20 127
-39 135 -41 8 -2 49 -13 90 -24 253 -72 581 -148 708 -164 23 -3 61 -9 85 -12
23 -3 53 -7 67 -9 171 -26 584 -26 717 -1 12 3 43 8 70 11 77 11 237 53 326
86 45 17 94 32 109 34 105 15 202 64 284 144 96 94 122 127 300 384 24 36 29
38 64 33 156 -22 240 -58 451 -198 85 -55 159 -101 164 -101 6 1 79 22 164 48
84 26 161 48 170 51 9 2 102 26 206 54 259 68 410 100 545 114 30 4 73 9 95
11 22 3 107 5 188 6 l148 1 46 71 c252 393 419 769 588 1330 59 195 168 666
198 852 28 172 37 225 41 255 7 50 24 186 31 245 4 28 8 61 11 75 2 14 6 55 9
90 3 36 8 85 10 110 13 137 22 299 31 530 8 227 11 894 4 1010 -3 47 -4 101
-2 121 3 35 5 36 60 49 31 8 59 14 62 15 3 1 32 7 65 15 33 8 62 14 65 15 29
8 96 24 340 79 283 64 557 124 595 132 11 2 149 31 306 63 158 33 298 62 311
65 14 2 72 14 129 25 123 25 116 24 249 49 58 12 121 24 140 27 19 3 42 8 50
10 8 2 31 7 50 10 62 10 441 93 575 125 72 17 138 33 148 35 10 2 26 6 35 9 9
3 28 7 42 10 14 3 61 14 105 26 44 11 89 22 100 25 11 2 79 21 150 41 72 19
137 37 145 39 39 9 271 74 300 84 14 5 52 17 85 26 256 73 754 242 1034 351
156 61 456 186 490 204 9 5 41 20 71 33 441 198 915 455 1210 656 459 312 914
747 1227 1171 40 54 92 191 157 410 31 105 91 344 106 425 6 33 13 70 16 83
10 54 15 83 28 172 17 108 26 188 42 360 9 102 11 562 3 700 -10 169 -19 294
-24 322 -2 13 -6 50 -9 83 -6 72 -18 157 -52 360 -14 86 -48 252 -70 345 -14
58 -27 112 -29 120 -63 278 -265 876 -395 1165 -10 22 -29 67 -43 100 -69 164
-327 689 -448 912 -251 461 -258 472 -359 561 -192 171 -413 331 -595 432
-208 116 -369 193 -535 258 -41 16 -84 33 -95 37 -11 4 -24 9 -30 11 -5 1 -55
19 -110 38 -82 30 -325 106 -385 121 -8 2 -76 20 -150 39 -121 32 -385 91
-450 101 -14 2 -92 16 -175 30 -82 14 -166 28 -185 31 -89 12 -108 15 -154 20
-74 9 -110 -18 -123 -91 -4 -27 -49 -65 -70 -60 -10 3 -58 16 -107 30 -49 13
-100 26 -115 29 -14 3 -36 7 -47 10 -23 5 -66 12 -129 21 -22 3 -51 8 -65 10
-155 27 -716 27 -882 0 -13 -2 -50 -6 -83 -10 -33 -3 -67 -8 -75 -10 -8 -2
-35 -6 -60 -9 -54 -7 -127 -21 -320 -61 -96 -20 -389 -107 -480 -142 -282
-109 -572 -247 -682 -324 -14 -11 -31 -19 -37 -19 -6 0 -11 -4 -11 -10 0 -5
-5 -10 -11 -10 -16 0 -205 -136 -284 -205 -38 -33 -90 -71 -115 -83 -423 -211
-842 -630 -1234 -1237 -50 -77 -98 -151 -106 -165 -181 -312 -319 -584 -425
-840 -14 -36 -32 -78 -40 -95 -48 -109 -191 -488 -277 -735 -64 -184 -69 -202
-73 -260 -3 -30 -7 -86 -10 -125 -3 -38 -7 -81 -10 -95 -3 -14 -8 -41 -11 -60
-9 -50 -55 -221 -64 -239 -5 -9 -25 -52 -45 -96 -47 -102 -107 -186 -203 -284
-104 -106 -249 -223 -276 -223 -12 0 -37 15 -57 35 -34 34 -37 35 -105 32 -38
-1 -76 -6 -84 -9 -8 -3 -28 -30 -45 -59 -34 -61 -259 -421 -367 -587 -61 -95
-168 -272 -221 -365 -76 -137 -120 -222 -201 -396 -55 -117 -161 -422 -181
-518 -2 -9 -13 -59 -24 -111 -11 -52 -23 -113 -26 -135 -4 -22 -8 -51 -11 -65
-24 -145 -24 -455 0 -672 3 -23 0 -26 -23 -26 -43 1 -88 -12 -105 -30 -21 -24
-99 -264 -88 -271 15 -10 78 -112 106 -174 28 -63 62 -177 71 -242 3 -22 8
-51 11 -65 2 -14 6 -34 8 -45 15 -78 71 -226 88 -233 4 -2 8 -8 8 -14 0 -6 16
-33 36 -60 20 -27 34 -52 30 -55 -3 -4 -32 -6 -64 -5 -82 1 -100 -5 -118 -39
-8 -17 -14 -32 -12 -34 2 -1 23 -13 48 -25 109 -54 220 -151 286 -250 36 -53
81 -148 90 -187 3 -16 9 -39 14 -53 8 -24 12 -46 27 -170 9 -76 10 -417 1
-521 -9 -97 -21 -192 -44 -324 -8 -49 -17 -103 -20 -120 -2 -16 -11 -64 -19
-105 -8 -41 -17 -86 -19 -100 -3 -14 -14 -69 -25 -124 -12 -54 -23 -108 -25
-120 -10 -51 -86 -384 -90 -397 -3 -8 -8 -25 -10 -39 -3 -14 -14 -65 -25 -115
-18 -83 -22 -107 -37 -205 -3 -19 -7 -45 -9 -58 -2 -12 -7 -64 -11 -115 -9
-121 -9 -122 -25 -121 -30 2 -155 15 -184 19 -16 2 -57 7 -90 10 -33 4 -67 8
-75 10 -8 2 -44 6 -80 10 -36 4 -72 8 -80 10 -8 1 -37 6 -65 9 -27 3 -68 9
-90 12 -22 2 -54 6 -71 8 -17 2 -49 6 -70 10 -21 3 -59 8 -84 11 -50 7 -221
33 -260 41 -14 2 -41 7 -60 10 -159 24 -489 99 -741 168 -171 47 -589 155
-624 162 -11 2 -225 55 -475 119 -250 63 -465 117 -477 120 -45 11 -321 95
-403 123 -270 93 -551 240 -883 464 -118 79 -262 179 -283 197 -21 17 -530
357 -652 435 l-122 78 4 45 c5 54 -18 83 -64 83 -32 0 -80 38 -80 63 0 16 0
16 215 109 88 38 169 73 180 78 49 23 387 154 555 215 102 37 194 71 205 76
11 5 164 56 340 114 176 57 334 109 350 115 17 6 37 13 45 15 76 17 759 278
908 346 35 16 65 29 67 29 3 0 91 40 197 89 252 116 465 223 619 311 138 80
382 238 387 251 2 5 8 9 13 9 6 0 15 5 22 10 7 6 68 54 137 108 69 53 132 104
141 112 8 8 49 44 90 80 166 146 366 358 487 519 244 322 426 761 497 1201 18
108 26 165 31 215 20 197 20 223 10 359 -7 93 -28 212 -51 281 -45 137 -57
278 -32 371 16 57 19 46 -52 198 -77 164 -169 408 -291 776 -67 201 -125 374
-130 385 -5 11 -37 99 -71 195 -59 169 -138 374 -178 462 -10 24 -36 81 -58
128 -153 339 -315 597 -495 785 l-57 60 -1 156 c0 123 -3 158 -14 162 -12 5
-185 125 -196 137 -14 15 -264 202 -330 247 -31 21 -66 62 -110 129 -36 55
-70 106 -77 114 -6 8 -28 38 -49 65 -72 97 -180 221 -289 330 -137 137 -227
214 -410 353 -5 4 -55 39 -110 77 -172 119 -552 393 -759 547 -122 91 -207
147 -220 147 -12 -1 -34 -4 -51 -6z m11650 -4077 c22 -3 74 -8 115 -12 41 -3
82 -7 90 -9 8 -1 40 -6 70 -10 56 -7 196 -30 240 -40 14 -3 40 -8 58 -11 18
-3 77 -17 130 -30 103 -27 122 -32 150 -38 57 -13 334 -111 427 -151 282 -121
482 -240 645 -383 l45 -40 -65 -62 c-170 -164 -369 -280 -710 -414 -52 -20
-104 -41 -115 -46 -49 -23 -496 -167 -805 -260 -241 -73 -329 -107 -600 -235
-239 -113 -458 -190 -620 -219 -14 -2 -32 -7 -40 -10 -8 -3 -28 -7 -45 -10
-16 -3 -43 -8 -60 -11 -16 -3 -68 -13 -115 -21 -47 -9 -92 -17 -100 -19 -8 -2
-50 -8 -93 -15 -391 -59 -716 -152 -975 -277 -51 -25 -94 -44 -96 -42 -2 2
-11 20 -20 39 -23 49 -62 91 -126 134 -74 49 -82 55 -111 96 -54 74 -54 73 16
231 183 417 215 493 248 589 32 95 56 175 63 207 2 13 2 12 69 228 47 149 47
150 105 205 92 88 259 220 279 220 5 0 11 4 13 8 2 5 47 35 101 66 243 143
493 230 832 290 17 3 39 8 50 10 11 2 43 7 70 10 123 16 141 18 165 22 14 2
79 7 145 10 66 4 121 8 123 9 5 5 407 -3 447 -9z m-12112 -175 c227 -104 385
-219 602 -436 150 -149 237 -258 322 -400 54 -91 133 -246 133 -261 0 -3 6
-20 14 -37 58 -132 129 -398 151 -570 2 -16 6 -41 10 -56 5 -23 1 -29 -22 -40
-74 -35 -585 -261 -588 -261 -2 0 -36 -15 -77 -34 -40 -19 -138 -62 -218 -96
-80 -34 -163 -70 -185 -80 -47 -21 -86 -39 -250 -110 -148 -64 -169 -73 -175
-74 -3 -1 -21 -9 -40 -18 -225 -105 -704 -283 -920 -342 -30 -8 -82 -23 -115
-32 -33 -9 -67 -17 -75 -19 -8 -2 -42 -10 -75 -19 -105 -27 -200 -47 -365 -75
-194 -33 -212 -35 -206 -14 3 10 9 43 15 73 27 144 74 319 117 435 14 39 27
75 28 80 1 6 10 27 19 49 9 21 17 41 17 43 0 13 100 208 150 293 89 150 211
331 312 465 62 80 243 294 313 369 11 12 56 62 100 111 44 49 91 101 105 115
14 15 86 91 160 170 74 79 144 153 155 164 11 12 47 53 80 91 33 38 65 75 70
81 6 6 24 28 40 49 17 21 48 61 70 89 42 53 132 179 200 279 21 31 40 57 41
57 2 0 41 -17 87 -39z"/>
</g>
</svg>
